<?xml version="1.0" standalone="no"?>
<!DOCTYPE svg PUBLIC "-//W3C//DTD SVG 20010904//EN"
 "http://www.w3.org/TR/2001/REC-SVG-20010904/DTD/svg10.dtd">
<svg version="1.0" xmlns="http://www.w3.org/2000/svg"
 width="125.000000pt" height="125.000000pt" viewBox="0 0 125.000000 125.000000"
 preserveAspectRatio="xMidYMid meet">
<metadata>
Created by potrace 1.14, written by Peter Selinger 2001-2017
</metadata>
<g transform="translate(0.000000,125.000000) scale(0.100000,-0.100000)"
fill="#000000" stroke="none">
<path d="M901 906 c-92 -92 -93 -94 -77 -117 20 -29 21 -91 2 -128 -24 -46
-61 -64 -119 -58 -57 5 -93 36 -104 88 l-5 29 -79 0 -79 0 0 -52 0 -52 -214
-216 c-182 -183 -215 -221 -221 -253 -9 -47 7 -89 48 -123 27 -22 38 -25 80
-21 48 4 52 8 201 155 l151 151 48 -45 c32 -29 67 -49 101 -59 84 -25 86 -22
86 116 l0 119 158 0 c150 0 161 1 210 26 28 14 69 45 90 70 40 44 79 142 68
169 -4 11 -31 15 -123 17 l-118 3 -5 138 -5 137 -94 -94z"/>
</g>
</svg>
